HIERARCHY
ROOT Hips
{
	OFFSET 0.000000 0.000000 0.000000
	CHANNELS 6 Xposition Yposition Zposition Zrotation Yrotation Xrotation 
	JOINT LHipJoint
	{
		OFFSET 0.000000 0.000000 0.000000
		CHANNELS 3 Zrotation Yrotation Xrotation
		JOINT LeftUpLeg
		{
			OFFSET 1.363060 -1.794630 0.839290
			CHANNELS 3 Zrotation Yrotation Xrotation
			JOINT LeftLeg
			{
				OFFSET 2.448110 -6.726130 0.000000
				CHANNELS 3 Zrotation Yrotation Xrotation
				JOINT LeftFoot
				{
					OFFSET 2.562200 -7.039590 0.000000
					CHANNELS 3 Zrotation Yrotation Xrotation
					JOINT LeftToeBase
					{
						OFFSET 0.157640 -0.433110 2.322550
						CHANNELS 3 Zrotation Yrotation Xrotation
						End Site
						{
							OFFSET 0.000000 0.000000 0.000000
						}
					}
				}
			}
		}
	}
	JOINT RHipJoint
	{
		OFFSET 0.000000 0.000000 0.000000
		CHANNELS 3 Zrotation Yrotation Xrotation
		JOINT RightUpLeg
		{
			OFFSET -1.305520 -1.794630 0.839290
			CHANNELS 3 Zrotation Yrotation Xrotation
			JOINT RightLeg
			{
				OFFSET -2.542530 -6.985550 0.000000
				CHANNELS 3 Zrotation Yrotation Xrotation
				JOINT RightFoot
				{
					OFFSET -2.568260 -7.056230 0.000000
					CHANNELS 3 Zrotation Yrotation Xrotation
					JOINT RightToeBase
					{
						OFFSET -0.164730 -0.452590 2.363150
						CHANNELS 3 Zrotation Yrotation Xrotation
						End Site
						{
							OFFSET 0.000000 0.000000 0.000000
						}
					}
				}
			}
		}
	}
	JOINT LowerBack
	{
		OFFSET 0.000000 0.000000 0.000000
		CHANNELS 3 Zrotation Yrotation Xrotation
		JOINT Spine
		{
			OFFSET 0.028270 2.035590 -0.193380
			CHANNELS 3 Zrotation Yrotation Xrotation
			JOINT Spine1
			{
				OFFSET 0.056720 2.048850 -0.042750
				CHANNELS 3 Zrotation Yrotation Xrotation
				JOINT Neck
				{
					OFFSET 0.000000 0.000000 0.000000
					CHANNELS 3 Zrotation Yrotation Xrotation
					JOINT Neck1
					{
						OFFSET -0.054170 1.746240 0.172020
						CHANNELS 3 Zrotation Yrotation Xrotation
						JOINT Head
						{
							OFFSET 0.104070 1.761360 -0.123970
							CHANNELS 3 Zrotation Yrotation Xrotation
							End Site
							{
								OFFSET 0.000000 0.000000 0.000000
							}
						}
					}
				}
				JOINT LeftShoulder
				{
					OFFSET 0.000000 0.000000 0.000000
					CHANNELS 3 Zrotation Yrotation Xrotation
					JOINT LeftArm
					{
						OFFSET 3.362410 1.200890 -0.311210
						CHANNELS 3 Zrotation Yrotation Xrotation
						JOINT LeftForeArm
						{
							OFFSET 4.983000 -0.000000 -0.000000
							CHANNELS 3 Zrotation Yrotation Xrotation
							JOINT LeftHand
							{
								OFFSET 3.483560 -0.000000 -0.000000
								CHANNELS 3 Zrotation Yrotation Xrotation
								JOINT LeftFingerBase
								{
									OFFSET 0.000000 0.000000 0.000000
									CHANNELS 3 Zrotation Yrotation Xrotation
									JOINT LeftHandIndex1
									{
										OFFSET 0.715260 -0.000000 -0.000000
										CHANNELS 3 Zrotation Yrotation Xrotation
										End Site
										{
											OFFSET 0.000000 0.000000 0.000000
										}
									}
								}
								JOINT LThumb
								{
									OFFSET 0.000000 0.000000 0.000000
									CHANNELS 3 Zrotation Yrotation Xrotation
									End Site
									{
										OFFSET 0.000000 0.000000 0.000000
									}
								}
							}
						}
					}
				}
				JOINT RightShoulder
				{
					OFFSET 0.000000 0.000000 0.000000
					CHANNELS 3 Zrotation Yrotation Xrotation
					JOINT RightArm
					{
						OFFSET -3.136600 1.374050 -0.404650
						CHANNELS 3 Zrotation Yrotation Xrotation
						JOINT RightForeArm
						{
							OFFSET -5.241900 -0.000000 -0.000000
							CHANNELS 3 Zrotation Yrotation Xrotation
							JOINT RightHand
							{
								OFFSET -3.444170 -0.000000 -0.000000
								CHANNELS 3 Zrotation Yrotation Xrotation
								JOINT RightFingerBase
								{
									OFFSET 0.000000 0.000000 0.000000
									CHANNELS 3 Zrotation Yrotation Xrotation
									JOINT RightHandIndex1
									{
										OFFSET -0.622530 -0.000000 -0.000000
										CHANNELS 3 Zrotation Yrotation Xrotation
										End Site
										{
											OFFSET 0.000000 0.000000 0.000000
										}
									}
								}
								JOINT RThumb
								{
									OFFSET 0.000000 0.000000 0.000000
									CHANNELS 3 Zrotation Yrotation Xrotation
									End Site
									{
										OFFSET 0.000000 0.000000 0.000000
									}
								}
							}
						}
					}
				}
			}
		}
	}
}
MOTION
Frames: 7
Frame Time: 0.008333
4.802964 18.125586 4.876062 5.032418 -49.499688 -3.327159 -2.149732 2.214389 3.159205 -15.499566 -0.447548 0.326758 3.742596 11.919497 38.431331 1.716419 -5.618781 29.335626 0.023100 -0.981400 -2.697700 0.216580 -1.401104 0.678810 25.472214 0.006586 -17.208034 -0.800209 -6.875808 20.243302 1.149757 -7.627562 3.901112 -1.776100 -8.383300 23.884500 -1.028182 -0.211738 6.896614 1.755715 -0.230063 1.800449 1.491959 -0.304380 -2.967343 -13.375327 -8.610407 -13.076653 9.055471 -10.703531 19.497165 4.855300 -5.264000 13.889600 -6.047136 -0.649516 -1.486081 -77.879628 2.294338 20.468668 20.322643 -28.615156 -6.268629 -0.697496 -2.398741 2.144214 16.186341 24.322691 7.746500 -7.125000 0.000000 0.000000 -14.661700 57.149500 -4.428500 5.130749 1.563410 -0.948640 85.194568 -6.819218 5.027449 -13.831058 20.614339 -2.616134 0.321603 -0.212221 10.465897 -14.425779 8.189115 -2.189300 7.125000 0.000000 0.000000 8.732100 -21.407000 4.999700 
4.690967 18.135886 4.943460 4.689831 -50.501612 -3.068486 -2.102101 2.151233 3.046062 -15.149976 -0.269806 -1.044261 4.303579 12.551562 40.724600 1.863747 -5.381319 30.524917 0.013100 0.740000 2.033700 0.222639 -1.401352 0.711663 25.927876 0.205048 -16.392790 -0.746080 -6.696741 19.806742 1.054107 -7.106679 3.940421 -1.768200 -8.365700 23.830300 -0.824278 0.020481 6.917467 1.791909 0.090473 1.797238 1.392179 -0.135345 -3.003383 -13.036623 -8.572082 -12.964514 8.816331 -10.704367 19.306750 4.681300 -5.255700 13.729200 -6.037252 -0.651742 -1.492139 -78.019762 2.535658 20.976874 20.264717 -28.544359 -6.241211 -0.679352 -2.393135 2.500445 15.793510 24.263761 7.526000 -7.125000 0.000000 0.000000 -15.070700 57.001200 -4.501500 5.139448 1.545765 -0.955466 85.125302 -6.709879 5.811702 -13.993074 20.845963 -2.681757 0.316084 -0.200081 10.264877 -14.208502 8.012398 -2.106700 7.125000 0.000000 0.000000 8.901100 -21.606500 5.058000 
4.582970 18.137686 5.010258 4.414148 -51.308674 -2.914937 -2.051797 2.086675 2.945835 -14.888740 -0.106066 -2.327459 4.832421 13.114166 42.918128 1.905939 -6.255593 31.034219 0.011400 0.690500 1.897600 0.228670 -1.396770 0.741386 26.301889 0.235215 -15.644597 -0.708748 -6.558912 19.487782 0.965373 -6.605102 3.891250 -1.732900 -8.286000 23.586300 -0.663521 0.165881 7.023688 1.810712 0.294518 1.791927 1.304498 -0.026666 -3.082855 -13.009988 -8.591008 -12.849401 8.910794 -10.754946 19.198342 4.705400 -5.267000 13.668400 -6.031939 -0.627543 -1.501169 -78.157459 2.839526 21.343443 20.253677 -28.531150 -6.242875 -0.632958 -2.390965 2.858164 15.041967 24.223185 7.127800 -7.125000 0.000000 0.000000 -15.889800 56.793800 -4.674300 5.135661 1.553747 -0.952100 85.033018 -6.626996 6.814578 -14.198166 21.135285 -2.764180 0.318713 -0.190893 9.824963 -14.224071 7.935131 -2.087400 7.125000 0.000000 0.000000 8.893100 -21.691800 5.035900 
4.480873 18.133486 5.078656 3.957518 -51.925560 -2.710291 -1.995031 2.027138 2.860718 -14.539721 0.040449 -3.507471 5.326257 13.614270 45.001883 1.833423 -8.070053 30.939419 0.000000 -0.006500 -0.017900 0.229503 -1.391740 0.766284 26.772131 0.009293 -14.950189 -0.687151 -6.457801 19.276997 0.879139 -6.103911 3.766873 -1.778500 -8.388600 23.900700 -0.366267 0.213260 7.237558 1.869203 0.383040 1.797253 1.222572 0.022468 -3.193316 -13.074999 -8.603834 -12.810989 9.011283 -10.780920 19.234579 4.757000 -5.276800 13.696000 -6.028149 -0.602058 -1.513266 -78.357734 3.176507 21.790190 20.253388 -28.528939 -6.247458 -0.635743 -2.386499 3.065820 15.030545 24.173619 7.107100 -7.125000 0.000000 0.000000 -15.877800 56.740600 -4.650000 5.132955 1.563387 -0.944495 84.816374 -6.442427 7.896138 -14.354820 21.349013 -2.826389 0.328697 -0.180642 9.343367 -14.426923 7.765069 -2.072100 7.125000 0.000000 0.000000 8.747900 -21.865600 4.916800 
4.377676 18.132186 5.143654 3.415128 -52.584738 -2.351466 -1.939005 1.969038 2.767181 -14.074628 0.091011 -4.755841 5.834714 14.099161 47.002369 1.716161 -8.761740 30.252696 0.000500 0.142900 0.392600 0.229038 -1.387843 0.790769 27.306989 -0.089862 -14.320790 -0.669825 -6.370967 19.100709 0.808461 -5.683736 3.630233 -1.775400 -8.381700 23.879500 -0.076470 0.296281 7.332463 1.942878 0.517655 1.812907 1.169647 0.093277 -3.221066 -12.985969 -8.597538 -12.733047 8.988090 -10.799536 19.179738 4.725000 -5.280800 13.645200 -6.027589 -0.592012 -1.520149 -78.475307 3.390696 22.589191 20.147037 -28.399292 -6.189512 -0.675384 -2.376831 3.316439 15.441654 24.106550 7.298400 -7.125000 0.000000 0.000000 -15.381000 56.761200 -4.507300 5.143363 1.562571 -0.936753 84.656808 -6.077194 8.393545 -14.402236 21.417696 -2.846897 0.325417 -0.185949 9.702053 -14.430986 7.861893 -2.098700 7.125000 0.000000 0.000000 8.742400 -21.763000 4.934300 
4.269879 18.135686 5.206052 3.125012 -53.336658 -2.152227 -1.893247 1.914593 2.668116 -13.750097 -0.055277 -5.877395 6.351636 14.558123 48.880509 1.587473 -8.097869 29.046212 0.005200 0.464100 1.275200 0.231585 -1.386301 0.819915 27.664352 -0.131981 -13.697097 -0.650419 -6.280756 18.908907 0.723128 -5.193755 3.566470 -1.712600 -8.239800 23.444800 -0.011815 0.427925 7.355071 1.980322 0.693600 1.822292 1.178452 0.185903 -3.222661 -12.895945 -8.570469 -12.640085 8.996461 -10.795500 19.127009 4.710800 -5.272400 13.589800 -6.029416 -0.581926 -1.525202 -78.512827 3.591065 23.425372 19.993015 -28.216840 -6.104298 -0.732267 -2.361613 3.427741 16.117840 23.953477 7.602400 -7.125000 0.000000 0.000000 -14.532900 56.751000 -4.247600 5.153577 1.561224 -0.930829 84.599527 -5.720280 8.688097 -14.482612 21.539439 -2.882802 0.311724 -0.193846 10.131534 -14.174221 8.101122 -2.122200 7.125000 0.000000 0.000000 8.926900 -21.522700 5.090300 
4.163282 18.140786 5.270851 3.023938 -54.071948 -2.158092 -1.856979 1.868503 2.573528 -13.557943 -0.349835 -6.814738 6.848876 14.971888 50.590664 1.439932 -6.728405 27.516684 0.057900 1.552400 4.270200 0.237430 -1.386069 0.853064 27.831688 -0.211627 -13.026290 -0.630085 -6.188710 18.711932 0.620816 -4.601229 3.450564 -1.777600 -8.386500 23.894400 -0.007948 0.578710 7.464212 1.992919 0.891079 1.813779 1.167216 0.289840 -3.312606 -12.972532 -8.593986 -12.436484 9.121911 -10.843152 19.039580 4.770000 -5.294600 13.526800 -6.031041 -0.558370 -1.533190 -78.686750 3.881915 23.850025 19.908860 -28.112773 -6.059886 -0.726867 -2.358744 3.750866 15.893139 23.934218 7.482000 -7.125000 0.000000 0.000000 -14.775000 56.682500 -4.295900 5.152428 1.571018 -0.922771 84.523848 -5.487010 9.415636 -14.676961 21.807777 -2.961787 0.316668 -0.186268 9.909659 -14.295186 7.988201 -2.110100 7.125000 0.000000 0.000000 8.841800 -21.639600 5.016800 
